<?xml version="1.0" encoding="UTF-8" standalone="no"?>
<!-- Created with Inkscape (http://www.inkscape.org/) -->

<svg
   xmlns:dc="http://purl.org/dc/elements/1.1/"
   xmlns:cc="http://creativecommons.org/ns#"
   xmlns:rdf="http://www.w3.org/1999/02/22-rdf-syntax-ns#"
   xmlns:svg="http://www.w3.org/2000/svg"
   xmlns="http://www.w3.org/2000/svg"
   xmlns:sodipodi="http://sodipodi.sourceforge.net/DTD/sodipodi-0.dtd"
   xmlns:inkscape="http://www.inkscape.org/namespaces/inkscape"
   width="744.09448"
   height="524.40942"
   id="svg2"
   version="1.1"
   inkscape:version="0.47 r22583"
   sodipodi:docname="Nuovo documento 1">
  <defs
     id="defs4">
    <linearGradient
       id="linearGradient3743">
      <stop
         style="stop-color:#00ff00;stop-opacity:1;"
         offset="0"
         id="stop3745" />
      <stop
         style="stop-color:#00ff00;stop-opacity:0;"
         offset="1"
         id="stop3747" />
    </linearGradient>
    <inkscape:perspective
       sodipodi:type="inkscape:persp3d"
       inkscape:vp_x="0 : 526.18109 : 1"
       inkscape:vp_y="0 : 1000 : 0"
       inkscape:vp_z="744.09448 : 526.18109 : 1"
       inkscape:persp3d-origin="372.04724 : 350.78739 : 1"
       id="perspective10" />
    <inkscape:perspective
       id="perspective2839"
       inkscape:persp3d-origin="0.5 : 0.33333333 : 1"
       inkscape:vp_z="1 : 0.5 : 1"
       inkscape:vp_y="0 : 1000 : 0"
       inkscape:vp_x="0 : 0.5 : 1"
       sodipodi:type="inkscape:persp3d" />
    <inkscape:perspective
       id="perspective2867"
       inkscape:persp3d-origin="0.5 : 0.33333333 : 1"
       inkscape:vp_z="1 : 0.5 : 1"
       inkscape:vp_y="0 : 1000 : 0"
       inkscape:vp_x="0 : 0.5 : 1"
       sodipodi:type="inkscape:persp3d" />
    <inkscape:perspective
       id="perspective2891"
       inkscape:persp3d-origin="0.5 : 0.33333333 : 1"
       inkscape:vp_z="1 : 0.5 : 1"
       inkscape:vp_y="0 : 1000 : 0"
       inkscape:vp_x="0 : 0.5 : 1"
       sodipodi:type="inkscape:persp3d" />
    <inkscape:perspective
       id="perspective3873"
       inkscape:persp3d-origin="0.5 : 0.33333333 : 1"
       inkscape:vp_z="1 : 0.5 : 1"
       inkscape:vp_y="0 : 1000 : 0"
       inkscape:vp_x="0 : 0.5 : 1"
       sodipodi:type="inkscape:persp3d" />
    <inkscape:perspective
       id="perspective3917"
       inkscape:persp3d-origin="0.5 : 0.33333333 : 1"
       inkscape:vp_z="1 : 0.5 : 1"
       inkscape:vp_y="0 : 1000 : 0"
       inkscape:vp_x="0 : 0.5 : 1"
       sodipodi:type="inkscape:persp3d" />
    <inkscape:perspective
       id="perspective3939"
       inkscape:persp3d-origin="0.5 : 0.33333333 : 1"
       inkscape:vp_z="1 : 0.5 : 1"
       inkscape:vp_y="0 : 1000 : 0"
       inkscape:vp_x="0 : 0.5 : 1"
       sodipodi:type="inkscape:persp3d" />
  </defs>
  <sodipodi:namedview
     id="base"
     pagecolor="#ffffff"
     bordercolor="#666666"
     borderopacity="1.0"
     inkscape:pageopacity="0.0"
     inkscape:pageshadow="2"
     inkscape:zoom="0.80431588"
     inkscape:cx="410.2401"
     inkscape:cy="279.95164"
     inkscape:document-units="px"
     inkscape:current-layer="layer1"
     showgrid="false"
     inkscape:window-width="1280"
     inkscape:window-height="731"
     inkscape:window-x="0"
     inkscape:window-y="24"
     inkscape:window-maximized="1" />
  <metadata
     id="metadata7">
    <rdf:RDF>
      <cc:Work
         rdf:about="">
        <dc:format>image/svg+xml</dc:format>
        <dc:type
           rdf:resource="http://purl.org/dc/dcmitype/StillImage" />
        <dc:title></dc:title>
      </cc:Work>
    </rdf:RDF>
  </metadata>
  <g
     inkscape:label="Livello 1"
     inkscape:groupmode="layer"
     id="layer1"
     transform="translate(0,-527.95265)">
    <path
       sodipodi:type="arc"
       style="fill:#000000;stroke:#000000"
       id="path2857"
       sodipodi:cx="106.12261"
       sodipodi:cy="69.290634"
       sodipodi:rx="3.9672003"
       sodipodi:ry="2.7187502"
       d="m 110.08981,69.290634 a 3.9672003,2.7187502 0 1 1 -7.9344,0 3.9672003,2.7187502 0 1 1 7.9344,0 z"
       transform="matrix(0.65401106,0,0,0.97070768,146.95016,851.10827)" />
    <path
       sodipodi:type="arc"
       style="fill:#ffffff;stroke:#000000"
       id="path2881"
       sodipodi:cx="108.32661"
       sodipodi:cy="183.47815"
       sodipodi:rx="70.968803"
       sodipodi:ry="74.856255"
       d="m 179.29541,183.47815 a 70.968803,74.856255 0 1 1 -141.937607,0 70.968803,74.856255 0 1 1 141.937607,0 z"
       transform="translate(8.7527802,508.64889)" />
    <path
       transform="translate(332.86546,424.45516)"
       sodipodi:type="arc"
       style="fill:#ffffff;stroke:#000000"
       id="path2881-3"
       sodipodi:cx="108.32661"
       sodipodi:cy="183.47815"
       sodipodi:rx="70.968803"
       sodipodi:ry="74.856255"
       d="m 179.29541,183.47815 a 70.968803,74.856255 0 1 1 -141.937607,0 70.968803,74.856255 0 1 1 141.937607,0 z" />
    <path
       style="fill:#cccccc;stroke:#000000;stroke-width:0.94021463000000005px;stroke-linecap:butt;stroke-linejoin:miter;stroke-opacity:1;opacity:1"
       d="m 21.030799,961.09268 c 10.283658,-0.77768 20.728539,-1.32965 30.975422,0.21882 4.343677,0.6564 8.607244,1.89872 12.937896,2.62587 3.340468,0.56089 6.68519,1.05501 10.010354,1.75058 4.712804,0.98584 9.390013,2.3341 14.071153,3.50115 1.255366,0.31298 2.529956,0.52278 3.777486,0.87529 2.616127,0.86598 5.284464,1.78594 7.93274,2.51646 2.60078,0.71742 5.23714,1.25368 7.83828,1.9694 3.75017,1.03189 7.47659,2.19241 11.23804,3.17293 3.60731,0.94034 7.26337,1.62807 10.86029,2.62587 3.23493,0.89737 6.45923,2.02057 9.63259,3.17292 5.26376,1.91143 10.35554,4.35146 15.48772,6.67408 2.86469,1.29646 5.76134,2.51282 8.49934,4.15763 5.73012,3.44227 11.06865,7.73942 16.52652,11.70702 2.39258,1.7392 4.89158,3.2727 7.27168,5.0328 3.38169,2.5008 6.75918,5.23 9.91591,8.0966 2.71205,2.4626 5.07445,5.3426 7.46054,8.2058 3.68691,4.424 -1.00614,-1.2752 2.64425,2.954 1.26208,1.4623 2.37794,3.0805 3.58861,4.5953 1.18879,1.4874 2.49738,3.0249 3.49418,4.7047 0.1595,0.2688 0.21824,0.6065 0.37775,0.8753 1.02175,1.7218 2.50502,2.9713 3.39973,4.8141 0.27608,0.5686 0.47612,1.1841 0.7555,1.7505 0.31565,0.64 0.75306,1.198 1.03882,1.86 0.24786,0.5744 0.38286,1.1866 0.66105,1.7506 0.0655,0.1328 0.71934,1.254 0.56663,1.313 -0.48247,0.1863 0.30008,-1.1394 0.56662,-1.6412 0.67637,-1.2734 1.39665,-2.4127 2.17206,-3.6106 3.23696,-5.0002 -0.91521,1.3014 2.5498,-4.267 2.24022,-3.6001 4.70389,-6.9998 7.27167,-10.2847 5.56739,-7.122 11.57121,-13.7166 17.37646,-20.5693 4.76315,-5.6225 9.37891,-11.4848 14.54334,-16.63046 4.65285,-4.63593 9.8545,-8.30548 15.10995,-11.92581 3.38332,-2.33067 6.74988,-4.58836 10.19923,-6.7835 2.16441,-1.37741 4.39252,-2.99975 6.61061,-4.26703 4.91549,-2.80845 10.0158,-5.17862 15.01552,-7.7682 11.44819,-5.92952 -3.61471,1.58328 8.02717,-4.37644 7.85388,-4.02057 15.93673,-7.17626 24.0815,-10.28466 7.54017,-2.87765 15.10049,-5.51179 22.94825,-7.00231 8.33053,-1.5822 16.84161,-2.92521 25.30919,-2.51646 1.77903,0.0859 3.55841,0.55519 5.28848,0.98471 0.55028,0.13661 1.32213,0.0755 1.32213,0.21882 0,0.0766 -0.78808,-0.0521 -0.84995,-0.10941 -0.0886,-0.0822 -0.115,-0.2284 -0.18887,-0.32824 -1.16852,-1.57943 -2.12185,-3.30449 -3.11643,-5.03291 -1.61563,-2.80772 -3.91532,-5.08319 -5.94954,-7.43996 -2.68052,-3.10554 -4.87649,-6.74381 -7.55498,-9.84701 -5.94906,-6.89233 -12.11974,-13.52712 -18.13195,-20.35048 -6.0025,-6.81232 -12.09577,-13.44515 -19.07633,-18.92813 -6.15592,-4.83525 -12.85534,-8.6703 -19.2652,-13.01993 -4.24642,-2.88155 -8.46295,-5.81663 -12.84347,-8.42465 -4.81099,-2.86432 -9.7304,-5.4669 -14.63777,-8.09643 -4.64294,-2.48784 -2.94389,-1.75838 -7.74386,-4.04822 -6.95228,-3.31661 -14.10967,-6.13786 -21.24838,-8.8623 -5.39711,-2.05977 -10.71607,-4.31569 -16.05433,-6.56467 -1.48576,-0.62594 -3.01318,-1.13808 -4.53299,-1.64117 -0.15435,-0.0511 -1.91826,-0.58124 -1.98318,-0.65647 -0.0668,-0.0773 0.28331,-0.10941 0.28331,0 0,0.10941 -0.28331,0.10941 -0.28331,0 0,-0.10941 0.37774,0 0.28331,0 -1.90391,0 -3.77116,-0.49143 -5.66624,-0.76587 -2.50142,-0.36226 -5.03276,-0.5852 -7.55498,-0.65647 -11.77325,-0.33268 -23.23625,3.04665 -34.4696,6.78349 -8.20417,2.72917 -16.43093,5.37061 -24.45925,8.75289 -7.93773,3.34413 -15.70788,7.32069 -23.51488,11.05053 -12.60286,6.0211 -25.16745,12.26641 -37.39715,19.25637 -1.14916,0.65681 -2.25049,1.42219 -3.39973,2.07881 -6.81789,3.89536 -13.909069,7.27798 -20.492888,11.707 -2.584542,1.73865 -4.947928,3.77903 -7.366109,5.79879 -1.811956,1.51342 -3.707936,2.90444 -5.477361,4.48586 -2.213256,1.97809 -4.309767,4.13883 -6.516175,6.12702 -0.551717,0.49715 -1.133248,0.94823 -1.699867,1.42235 -0.598101,0.47411 -1.220503,0.9095 -1.794312,1.42234 -0.529897,0.4736 -0.977536,1.06355 -1.510989,1.53176 -2.066916,1.81412 -4.356596,3.3127 -6.421739,5.14233 -5.743834,5.08879 -11.64311,9.79265 -17.093139,15.31756 -0.488388,0.4951 -1.036577,0.90934 -1.510998,1.42235 -0.472184,0.51058 -0.857175,1.12173 -1.322118,1.64116 -1.632092,1.82334 -3.335742,3.5698 -4.910742,5.47056 -0.78753,0.95042 -1.47831,2.00441 -2.266496,2.9541 -2.12435,2.55964 -0.350312,0.0635 -2.360931,2.62587 -1.023544,1.30443 -1.912568,2.83849 -3.021986,4.04821 -0.76385,0.83291 -1.627577,1.52948 -2.266497,2.51646 -0.375382,0.57986 -0.82758,2.10302 -1.227683,2.84469 -0.14157,0.26242 -0.406357,0.4089 -0.566628,0.65647 -0.138224,0.21352 -0.307319,0.64607 -0.472185,0.87529 -0.580447,0.80697 -1.33191,1.46819 -1.888747,2.29764 -0.216071,0.32185 -0.243953,0.78371 -0.472184,1.0941 -1.344323,1.82835 -2.770162,3.5741 0.661063,5.25174 z"
       id="path3857" />
    <path
       style="fill:#cccccc;stroke:#000000;stroke-width:1.04725873000000003px;stroke-linecap:butt;stroke-linejoin:miter;stroke-opacity:1"
       d="m 367.58614,775.08713 c 6.03202,-0.2858 11.96067,0.25685 17.85359,1.46547 2.23211,0.45781 4.54154,0.74916 6.70931,1.46547 1.57071,0.51902 3.00399,1.33556 4.54869,1.91638 2.74073,1.03055 5.5691,1.79085 8.30134,2.81821 0.58668,0.22059 1.12319,0.5581 1.70576,0.7891 1.77906,0.70544 3.65209,1.39713 5.45843,2.02911 0.6334,0.22161 1.30824,0.31959 1.93319,0.56365 0.63088,0.24637 1.19246,0.64589 1.81947,0.90182 3.9699,1.62045 0.23684,-0.27716 3.75266,1.46547 1.88139,0.93251 3.70489,1.97558 5.57214,2.93094 2.14546,1.0977 4.38231,2.10928 6.36816,3.49457 0.55193,0.38503 1.02188,0.88205 1.59204,1.24002 0.57285,0.35965 1.23308,0.5643 1.81948,0.90183 1.84681,1.06301 3.75408,2.15597 5.57214,3.26912 2.66873,1.63401 5.06963,3.71851 7.61904,5.52369 1.90514,1.34898 3.83141,2.635 5.68586,4.05822 4.68296,3.594 9.15056,7.5428 13.41861,11.61102 1.51797,1.44689 2.94673,2.92251 4.54869,4.28368 3.68144,3.12809 7.43774,6.1573 11.14427,9.24373 1.35415,1.12758 2.61625,2.37771 3.98011,3.49457 1.2614,1.03298 2.67885,1.91997 3.86638,3.04367 1.22063,1.15502 2.21863,2.53753 3.41151,3.72004 1.19312,1.18274 2.50047,2.25314 3.63895,3.49457 1.44821,1.57919 2.66597,3.3781 4.09381,4.96006 0.30436,0.33719 0.7496,0.53984 1.02345,0.90182 0.30514,0.40331 0.44009,0.90945 0.68231,1.35274 0.46135,0.84431 1.03026,1.62871 1.47832,2.48003 1.04492,1.98535 0.27926,0.91229 1.36461,2.70547 0.71806,1.18638 1.54794,2.31159 2.27435,3.49459 1.2226,1.99111 2.27179,4.05368 3.41151,6.08733 0.6777,1.20924 1.62144,2.38446 2.0469,3.72003 0.35161,1.10373 0.53756,2.27502 0.90974,3.38185 0.57896,1.7218 1.43978,3.31195 1.93319,5.07278 0.53276,1.90124 0.72975,3.80811 1.02345,5.74915 0.26665,1.76221 0.57822,3.54549 0.90974,5.29823 0.21686,1.14649 0.24384,0.40427 0.34115,1.46546 0.2184,2.38142 0.11372,4.8143 0.11372,7.21463 0,2.52462 -0.0718,4.98333 0.34115,7.44007 0.028,0.16649 0.0122,1.07393 0.22743,1.12728 0.24214,0.0599 0.57506,-0.67958 0.79602,-0.7891 3.25146,-1.61159 6.1819,-3.54738 8.98366,-5.86187 2.82726,-2.33557 5.57848,-4.79567 8.52878,-6.98916 6.12307,-4.55237 12.40682,-8.91284 18.87704,-12.96377 4.7358,-2.96502 9.82924,-5.3268 14.66951,-8.11644 4.1727,-2.40489 8.38295,-4.70503 12.62261,-6.98916 1.80523,-0.97257 3.50699,-2.1328 5.3447,-3.04366 2.04831,-1.01525 4.16962,-1.87881 6.25444,-2.81821 3.13234,-1.41141 6.37583,-2.52982 9.55223,-3.83276 6.32353,-2.59388 12.48915,-5.55966 18.87704,-8.00371 7.16659,-2.74201 14.53927,-4.85065 21.83369,-7.21463 3.03109,-0.98231 6.00534,-2.13626 9.09738,-2.93093 4.07883,-1.04829 8.27335,-1.56469 12.39516,-2.3673 4.24423,-0.82644 8.38825,-2.18861 12.62259,-3.04367 2.71388,-0.54801 5.66935,-1.03244 8.41507,-1.46547 3.8629,-0.6092 7.72668,-1.15775 11.59915,-1.69091 4.06951,-0.56031 8.04771,-1.24002 12.16773,-1.24002 2.76712,0 5.53423,0 8.30135,0 1.28879,0 2.57759,0 3.86638,0 0.26534,0 0.53068,0 0.79603,0 0.11371,0 0.34114,-0.11273 0.34114,0 0,0.23765 -0.45487,-0.15031 -0.6823,-0.22545 -0.15798,-0.0522 -0.94332,-0.20579 -1.02345,-0.33819 -0.078,-0.12889 0.0271,-0.30304 0,-0.45091 -0.0493,-0.26916 -0.13054,-0.53297 -0.22744,-0.78911 -0.81511,-2.15475 -1.21878,-3.90395 -1.81948,-6.08733 -0.66054,-2.40097 -1.43839,-4.79115 -2.38805,-7.10188 -0.3966,-0.96501 -0.97422,-1.85073 -1.3646,-2.81821 -0.66854,-1.65679 -1.33507,-3.4082 -2.27434,-4.96005 -0.9132,-1.50877 -2.19969,-2.90483 -3.2978,-4.28368 -1.47795,-1.85579 0.13908,0.15142 -1.36461,-2.14184 -0.99645,-1.51966 -2.4315,-2.72045 -3.63895,-4.05822 -0.95807,-1.06148 -1.66049,-2.25003 -2.50177,-3.38185 -0.63285,-0.8514 -1.33043,-1.35268 -2.04691,-2.14184 -1.47755,-1.62744 -2.71949,-3.45719 -4.20753,-5.07277 -1.58627,-1.72224 -3.46013,-3.20055 -5.00356,-4.96005 -1.55026,-1.76729 -2.94892,-3.69982 -4.43496,-5.5237 -2.78633,-3.41974 -5.88535,-6.56695 -8.86994,-9.80736 -3.73408,-4.05415 1.99772,1.83466 -2.27435,-2.59275 -2.10943,-2.18615 -4.46644,-4.04925 -6.7093,-6.08733 -1.85947,-1.68969 -3.48843,-3.61144 -5.34471,-5.29823 -1.77591,-1.61377 -3.71883,-3.08512 -5.45842,-4.73459 -0.44591,-0.42283 -0.80498,-0.92993 -1.25088,-1.35275 -2.11212,-2.00272 -4.52459,-3.69616 -6.5956,-5.74915 -1.09355,-1.08405 -2.06337,-2.32643 -3.18408,-3.38185 -2.17172,-2.0452 -4.6539,-3.8256 -6.93675,-5.74914 -0.95522,-0.80488 -1.7561,-1.82104 -2.7292,-2.59276 -1.49499,-1.18559 -3.35776,-1.8508 -4.77613,-3.15639 -1.00963,-0.92937 -1.71507,-2.22377 -2.84293,-3.04367 -1.11467,-0.81033 -2.50187,-1.36148 -3.63894,-2.14183 -0.22038,-0.15125 -0.34557,-0.41627 -0.56858,-0.56365 -0.2402,-0.15873 -0.56508,-0.16648 -0.79602,-0.33818 -0.23685,-0.17609 -0.35104,-0.47732 -0.56859,-0.67638 -0.76323,-0.69839 -1.85009,-1.3717 -2.72921,-1.91638 -1.91656,-1.18743 -3.9595,-2.25204 -5.9133,-3.38185 -0.65005,-0.3759 -1.26061,-0.90665 -1.93319,-1.24001 -0.21441,-0.10628 -0.45486,-0.15031 -0.68229,-0.22545 -0.22744,-0.11273 -0.45842,-0.21869 -0.6823,-0.33819 -1.74627,-0.93212 -3.36559,-2.01204 -5.231,-2.70549 -1.36769,-0.50841 -2.83036,-0.75817 -4.20752,-1.24 -2.06418,-0.7222 0.40705,0.0831 -1.47833,-0.7891 -0.96634,-0.44704 -2.15868,-0.72413 -3.18408,-1.01456 -1.19267,-0.3378 -2.43465,-0.73031 -3.63895,-1.01455 -1.25351,-0.29586 -1.50042,-0.12069 -2.72921,-0.56364 -1.6296,-0.58743 -3.21519,-1.41836 -4.88983,-1.91639 -2.00227,-0.59545 -0.27052,0.2057 -2.50178,-0.56364 -1.38333,-0.47697 -2.68038,-1.15176 -4.09382,-1.57819 -1.9705,-0.59451 -4.04947,-0.69548 -6.02701,-1.24002 -2.10502,-0.57965 -4.22847,-0.99412 -6.36815,-1.46547 -2.4946,-0.54953 -4.99537,-1.23853 -7.50533,-1.69092 -1.21738,-0.21942 -2.52092,-0.21609 -3.75267,-0.33819 -3.56793,-0.35369 -7.10064,-0.33818 -10.68941,-0.33818 -2.98522,0 -6.00198,-0.12852 -8.98364,0 -4.86669,0.20976 -9.78819,1.47316 -14.5558,2.36729 -2.14267,0.40185 -4.33228,0.78173 -6.48188,1.12729 -3.05092,0.49044 -1.29104,-0.11412 -4.32124,0.67637 -2.21084,0.57673 -4.38288,1.33915 -6.5956,1.91638 -7.89265,2.05895 3.26915,-0.97927 -3.86638,0.7891 -2.39975,0.59472 -4.74367,1.37457 -7.16418,1.91638 -3.02219,0.67649 -6.11939,1.16808 -9.09736,2.02911 -1.82316,0.52713 -3.60025,1.28159 -5.45843,1.69093 -2.29839,0.50631 -4.37217,0.60538 -6.70931,1.35274 -1.39034,0.4446 -2.04182,0.83268 -3.41151,1.24001 -1.6078,0.47815 -3.28211,0.76779 -4.88984,1.24001 -1.38099,0.40562 -2.86786,0.93426 -4.20754,1.46547 -0.31478,0.12482 -0.58446,0.35608 -0.90973,0.45091 -0.6995,0.20395 -1.4555,0.15424 -2.16062,0.33819 -1.43093,0.37329 -2.77137,1.16575 -4.20754,1.46547 -1.52767,0.31881 -3.04634,0.4054 -4.54869,0.90183 -1.41759,0.46842 -2.66972,1.23716 -4.09381,1.69092 -1.67415,0.53344 -3.3294,1.04476 -5.00355,1.5782 -2.24748,0.71612 -0.74122,0.4154 -3.07036,1.24001 -2.33242,0.82576 -4.73915,1.46469 -7.05046,2.36729 -1.81446,0.70857 -3.53695,1.65048 -5.3447,2.3673 -1.71072,0.67833 -3.49616,1.19341 -5.23099,1.80365 -1.61801,0.56914 -3.17987,1.29474 -4.77613,1.91638 -0.60397,0.23521 -2.45768,0.83576 -3.07036,1.12729 -1.39896,0.66566 -2.70551,1.56645 -4.09382,2.25457 -1.35163,0.66993 -2.83366,1.06671 -4.20753,1.69092 -2.00355,0.91032 -3.86259,2.02713 -5.79957,3.04367 -0.32994,0.17315 -0.71002,0.24986 -1.02345,0.45092 -0.33831,0.21699 -0.56592,0.5808 -0.90974,0.78909 -1.11953,0.44391 -1.14353,0.3984 -2.16062,1.01455 -1.29333,0.7835 -2.40522,1.75194 -3.63895,2.59276 -3.17936,2.16679 1.90063,-1.80362 -2.04691,1.24001 -0.64034,0.49371 -1.31727,0.94212 -1.9332,1.46547 -0.61055,0.51878 -1.08391,1.29929 -1.70575,1.80366 -0.1968,0.15961 -0.4684,0.20187 -0.68231,0.33818 -0.90936,0.5795 -1.71496,1.41387 -2.50177,2.14184 -0.79123,0.73205 -1.37608,1.63818 -2.16062,2.36729 -0.92115,0.85607 -2.02665,1.51122 -2.95665,2.3673 -1.77038,1.62963 -3.44089,3.38268 -5.23099,4.96005 -0.57548,0.5071 -1.35616,0.86245 -1.93319,1.35273 -0.62679,0.53258 -0.0892,0.31386 -0.56858,0.7891 -0.7627,0.75607 -1.42944,1.56194 -2.16063,2.3673 -0.51685,0.56928 -1.10001,1.08124 -1.59204,1.69093 -1.16235,1.4403 0.41202,-0.22522 -0.6823,1.01455 -0.34256,0.38811 -1.0472,0.8816 -1.25089,1.35274 0,0.36703 0.048,0.46858 -0.11371,0.7891 -1.1135,2.20762 -1.32001,2.89027 3.18407,5.41096 z"
       id="path3861" />
    <path
       sodipodi:type="arc"
       style="fill:#000000;stroke:#000000"
       id="path2857-0"
       sodipodi:cx="106.12261"
       sodipodi:cy="69.290634"
       sodipodi:rx="3.9672003"
       sodipodi:ry="2.7187502"
       d="m 110.08981,69.290634 a 3.9672003,2.7187502 0 1 1 -7.9344,0 3.9672003,2.7187502 0 1 1 7.9344,0 z"
       transform="matrix(0.65401106,0,0,0.97070768,485.00368,715.11032)" />
    <path
       style="fill:none;stroke:#000000;stroke-width:1px;stroke-linecap:butt;stroke-linejoin:miter;stroke-opacity:1"
       d="m 158.46034,748.03419 c 1.77855,1.06907 3.38675,2.38891 5.08129,3.56771 2.33421,1.62381 4.64968,3.21462 6.81108,5.08129 2.06844,1.78638 3.80085,3.81474 5.62184,5.83807 1.33241,1.48045 2.7454,2.8826 4.00016,4.43261 1.31258,1.62142 2.25551,3.50366 3.4596,5.18939 0.52029,0.72842 1.2095,1.32572 1.7298,2.05414 0.85804,1.20126 1.57703,2.44695 2.37847,3.67582 1.21909,1.86928 2.59738,3.53658 3.67582,5.51373 1.36691,2.50601 3.07669,4.69537 4.54072,7.13542 0.77526,1.2921 1.41822,2.64224 2.27036,3.89205 1.04325,1.53009 2.10621,3.03718 3.02715,4.64883 1.09589,1.9178 1.89162,3.99409 2.91903,5.94618 0.71687,1.36205 1.77312,2.52457 2.48659,3.89205 0.64272,1.23189 0.8944,2.50629 1.40546,3.78393 0.65909,1.64773 1.46994,3.22869 2.16225,4.86506 0.54257,1.28244 1.02525,2.63954 1.62168,3.89205 0.69825,1.46631 1.40534,2.88779 1.94603,4.4326 0.40151,1.14719 0.60526,2.40316 0.97301,3.56771 0.43331,1.37217 1.28654,2.67039 1.51357,4.10827 0.0562,0.35597 -0.0342,0.72238 0,1.08113 0.13155,1.3812 0.59333,2.75042 0.8649,4.10827 0.64021,3.20106 -0.2111,-1.01954 0.32434,2.5947 0.2833,1.9123 0.73255,3.80626 0.97301,5.72995 0.21096,1.68768 0.25658,3.38729 0.32434,5.08129 0.11549,2.88722 0.42518,5.76438 0.54056,8.64899 0.19605,4.90135 0.37678,9.80926 0.64868,14.70329 0.11027,1.98487 -0.20042,4.07153 -0.32434,6.05429 -0.25184,4.02943 -0.22034,8.07852 -0.43245,12.10859 -0.095,1.8049 -0.1958,3.60613 -0.32434,5.40562 -0.0469,0.65636 -0.27727,1.2871 -0.32434,1.94602 -0.0741,1.03775 -0.021,2.1242 -0.32433,3.13526 -0.27285,0.90951 -0.3873,1.788 -0.64868,2.70281 -0.14953,0.52337 -0.30104,0.92643 -0.54056,1.40546 -0.10193,0.20386 -0.31815,0.85254 -0.21622,0.64868 0.15872,-0.31746 0.51853,-1.31734 0.43245,-0.97301 -0.12174,0.48695 -0.39894,0.92391 -0.54057,1.40546 -0.12659,0.43041 0.0361,1.11704 -0.10811,1.51357 -0.0697,0.19159 -0.23255,0.39247 -0.43245,0.43245 -0.11175,0.0224 -0.12685,-0.43675 -0.10811,-0.32434 0.0546,0.32773 0.25291,0.6428 0.21622,0.97302 -0.0119,0.10745 -0.26436,0.0899 -0.32433,0 -0.1216,-0.1824 -0.30418,-0.55065 -0.10812,-0.64868 0.18795,-0.094 0.13639,0.63454 0.32434,0.54056 0.19607,-0.098 0.1111,-0.64867 -0.10811,-0.64867 -0.21623,0 0.0967,0.84207 0,0.64867 -0.036,-0.2883 -0.0721,-0.5766 -0.10811,-0.8649 0.10811,-0.036 0.32433,0.006 0.32433,-0.10811 0,-0.41089 -0.21622,-0.79282 -0.32433,-1.18923"
       id="path3891" />
    <path
       style="fill:none;stroke:#000000;stroke-width:1px;stroke-linecap:butt;stroke-linejoin:miter;stroke-opacity:1"
       d="m 495.74942,123.25836 c 1.93657,0.90839 3.22385,2.68468 4.75694,4.10827 0.54442,0.50553 1.18539,0.89993 1.7298,1.40546 0.87686,0.81423 1.6913,1.72113 2.37847,2.70281 0.12051,0.17215 0.17576,0.39198 0.32434,0.54056 0.18376,0.18376 0.46492,0.2487 0.64868,0.43245 0.2192,0.21921 0.33108,0.52827 0.54056,0.75679 0.19019,0.20748 0.45848,0.33308 0.64867,0.54056 0.83919,0.91548 1.27735,2.16428 2.05414,3.13526 0.73783,0.92229 1.61949,1.83461 2.27036,2.81092 0.33089,0.49634 0.42589,1.12535 0.75679,1.62169 0.51804,0.77707 1.06289,1.43339 1.51357,2.27036 0.11461,0.21285 0.21622,0.43245 0.32434,0.64867 0.0721,0.25227 0.0989,0.52213 0.21622,0.75679 0.20639,0.41278 0.63236,0.68249 0.8649,1.08112 0.34871,0.59779 0.5022,1.30957 0.75679,1.94603 0.39688,0.99222 0.92951,1.96714 1.40546,2.91903 0.45523,0.91046 1.10531,1.9991 1.7298,2.81093 0.15537,0.20197 0.41975,0.31619 0.54056,0.54056 0.38754,0.71971 0.65916,2.18322 1.08112,3.02714 0.98422,1.96843 2.30525,3.7197 3.24337,5.72996 0.45554,0.97615 0.64464,2.04505 1.08113,3.02715 0.60397,1.35894 1.3612,2.69129 2.05413,4.00016 0.53514,1.0108 0.73132,2.11767 1.18924,3.13526 0.39816,0.88479 1.59355,2.1812 1.94602,3.02714 0.23585,0.56603 0.23267,1.34667 0.43245,1.94603 0.58007,1.74021 0.0504,-0.29572 0.75679,1.62168 0.43508,1.18094 0.78828,2.56489 1.40546,3.67583 0.0742,0.13365 0.24848,0.19158 0.32434,0.32433 0.10058,0.17602 0.17323,0.97793 0.21622,1.08113 0.1,0.23988 0.32829,0.41059 0.43245,0.64867 0.15081,0.3447 0.16328,0.7411 0.32434,1.08113 0.4517,0.95359 1.35744,1.86204 1.62169,2.91903 0.48103,1.92415 1.22312,4.35978 2.37847,6.05429 0.75871,1.11278 1.87921,2.13674 2.48658,3.35149 0.41731,0.8346 0.30861,1.96074 0.64868,2.81092 0.0568,0.14196 0.25008,0.19069 0.32434,0.32434 0.3042,0.54756 0.70281,1.70305 0.8649,2.27036 0.35503,1.24262 0.56311,2.55424 0.97301,3.78393 0.41493,1.24481 1.23372,2.36988 1.51357,3.67582 0.36485,1.70263 0.7806,3.45768 0.97301,5.1894 0.1309,1.17807 0.23654,2.41241 0.54056,3.56771 0.25911,0.98458 0.80936,1.85974 1.08113,2.81092 0.10737,0.3758 -0.035,0.91214 0,1.29735 0.0948,1.0427 0.31331,2.11262 0.54056,3.13526 0.37077,1.66849 0.94815,3.39369 1.18924,5.08128 0.0869,0.60863 0.0857,1.22872 0.21622,1.83791 0.23088,1.07745 0.70942,2.15499 0.8649,3.24338 0.0807,0.56515 -0.0708,1.16318 0,1.72979 0.0629,0.50308 0.40728,0.83088 0.54056,1.29735 0.081,0.28333 0,0.79274 0,1.08113 0,0.10811 0,0.43245 0,0.32433 0,-0.25226 -0.25226,-0.75678 0,-0.75678 0.25226,0 -0.0886,0.52058 0,0.75678 0.04,0.10671 0.36038,0 0.32434,0.10812 -0.036,0.10811 -0.32434,-0.22208 -0.32434,-0.10812 0,0.0747 0.48341,0.93203 0.54056,1.18924 0.23405,1.05321 0.15003,2.29237 0.21623,3.35149"
       id="path3905"
       transform="translate(0,527.95265)" />
    <path
       style="fill:none;stroke:#000000;stroke-width:1px;stroke-linecap:butt;stroke-linejoin:miter;stroke-opacity:1"
       d="m 222.87372,378.51174 c 0,-0.14415 -0.0568,-0.29996 0,-0.43245 0.26863,-0.62681 1.11839,-1.00548 1.51357,-1.51358 0.24736,-0.31803 0.2932,-0.76308 0.54056,-1.08112 0.28598,-0.36768 0.71344,-0.69176 0.97301,-1.08112 0.12643,-0.18965 0.0703,-0.47358 0.21623,-0.64868 0.4802,-0.57624 1.62339,-0.65548 1.83791,-1.51357 0.14185,-0.56741 -0.34093,-1.06453 0.21622,-1.62169 0.85426,-0.85426 2.29717,-1.33063 2.81093,-2.48658 0.47983,-1.07962 1.0464,-2.64176 1.94602,-3.4596 0.65956,-0.5996 1.49457,-1.04303 2.16225,-1.62169 0.61741,-0.53509 1.02563,-1.27911 1.62168,-1.83791 1.03398,-0.96935 2.37043,-1.60163 3.4596,-2.48658 1.35559,-1.10142 2.60462,-2.39633 4.00016,-3.4596 1.04204,-0.79394 2.17824,-1.5011 3.24337,-2.27036 0.64339,-0.46467 1.17159,-1.08242 1.83791,-1.51357 0.29799,-0.19282 0.66585,-0.25462 0.97301,-0.43245 0.64898,-0.37572 1.18239,-0.93317 1.83791,-1.29735 1.0712,-0.59511 2.17575,-1.11973 3.24338,-1.7298 1.60427,-0.91673 3.05067,-2.09489 4.64883,-3.02715 2.12151,-1.23754 4.39562,-2.32276 6.37863,-3.78393 4.34046,-3.19824 -2.26726,1.3524 1.94602,-1.62169 1.28775,-0.90899 2.69249,-1.6148 4.00016,-2.48658 1.99682,-1.33121 3.80371,-2.90075 5.72996,-4.3245 1.79851,-1.32933 3.83986,-2.33933 5.62185,-3.67582 0.87535,-0.65651 1.62277,-1.4904 2.48658,-2.16225 0.93586,-0.72789 1.9103,-1.04526 2.91904,-1.62168 1.03803,-0.59317 1.78809,-1.54855 2.81092,-2.16225 0.66489,-0.39894 1.38637,-0.69954 2.05413,-1.08113 1.09467,-0.62552 1.8361,-1.71667 2.91904,-2.37847 0.3438,-0.2101 0.72075,-0.36037 1.08112,-0.54056 0.32434,-0.25226 0.62241,-0.54253 0.97301,-0.75679 0.30286,-0.18507 0.6777,-0.23557 0.97302,-0.43245 0.80894,-0.53929 1.2886,-1.54982 2.05413,-2.16224 1.08619,-0.86896 2.52562,-1.25784 3.67582,-2.05414 2.24361,-1.55327 -0.9796,0.66654 0.8649,-0.97301 0.18069,-0.16061 0.45785,-0.17592 0.64868,-0.32434 1.26103,-0.9808 -1.11383,0.18902 1.08112,-0.97301 1.12701,-0.59665 2.38617,-1.01418 3.4596,-1.7298 0.43099,-0.28733 0.75825,-0.7938 1.18923,-1.08112 0.64148,-0.42765 1.40885,-0.54282 2.05414,-0.97302 0.60905,-0.40603 1.04582,-0.98645 1.7298,-1.29734 1.60127,-0.72786 3.28203,-1.26263 4.86506,-2.05414 1.51885,-0.75943 0.0352,-0.0942 1.40546,-0.8649 1.30049,-0.73153 2.67374,-1.28281 4.00016,-1.94602 0.81669,-0.40835 1.46969,-1.08245 2.27036,-1.51358 1.23335,-0.66411 2.56973,-1.14408 3.78393,-1.83791 0.95114,-0.5435 1.84105,-1.21633 2.81092,-1.72979 0.43436,-0.22996 1.79892,-0.75098 2.16225,-0.97302 0.2835,-0.17325 0.47504,-0.47258 0.75679,-0.64867 1.00479,-0.628 0.85617,-0.19288 1.7298,-0.8649 0.24237,-0.18644 0.39194,-0.48255 0.64867,-0.64867 0.36559,-0.23656 0.81435,-0.31904 1.18924,-0.54057 0.42199,-0.24936 0.77178,-0.608 1.18923,-0.8649 5.40873,-3.32844 -1.71179,1.35743 2.91904,-1.72979 2.05242,-1.36828 4.00611,-2.70609 6.16241,-3.89205 0.75964,-0.4178 1.07527,-0.80792 1.83791,-1.18924 0.8785,-0.43925 1.79412,-0.6523 2.70281,-0.97301 1.10368,-0.38954 1.98543,-1.24367 3.02714,-1.7298 1.7266,-0.80574 0.22782,0.19777 1.94603,-0.75678 3.21525,-1.78626 6.66135,-3.26059 9.83823,-5.1894 2.22048,-1.34815 4.24711,-3.02407 6.48674,-4.3245 3.73994,-2.17158 7.76587,-3.91385 11.45991,-6.1624 2.38135,-1.44952 0.0841,-0.31042 2.16225,-1.51358 1.83858,-1.06444 3.83939,-1.75752 5.72996,-2.70281 1.5505,-0.77524 2.99878,-1.7902 4.54072,-2.59469 1.27151,-0.6634 2.65707,-1.10816 3.89205,-1.83791 1.96734,-1.16253 3.88931,-2.43117 5.94618,-3.4596 1.99371,-0.99686 1.13445,-0.35679 3.35148,-1.29735 0.59346,-0.25177 1.13919,-0.60651 1.7298,-0.8649 2.50214,-1.09469 5.10181,-1.92328 7.67598,-2.81092 1.52756,-0.52674 3.00626,-1.21831 4.54072,-1.7298 1.59907,-0.53302 3.25569,-0.89724 4.86506,-1.40546 2.3374,-0.73813 4.69698,-1.41322 7.02731,-2.16225 0.89767,-0.28854 1.77681,-0.75932 2.70281,-0.97301 2.74675,-0.63387 5.55241,-1.08856 8.32465,-1.62169 1.92049,-0.36932 3.80439,-0.95349 5.72996,-1.29735 1.93429,-0.3454 3.896,-0.50347 5.83807,-0.75678 2.06868,-0.26983 4.08084,-0.79955 6.16241,-0.97301 2.01397,-0.16784 5.83778,-0.16994 7.78409,0.10811 1.2864,0.18377 2.5857,0.47181 3.89205,0.54056 2.88435,0.15181 5.76681,0.0361 8.64899,0.21623 1.52188,0.0951 3.02006,0.31547 4.54072,0.43244 2.11668,0.16283 4.27226,0.1165 6.37863,0.43245 1.2133,0.182 2.35987,0.58424 3.56771,0.75679 2.02162,0.2888 4.05839,0.46572 6.05429,0.8649 1.12709,0.22542 2.32486,0.65363 3.4596,0.75679 1.43877,0.13079 3.02052,0.32281 4.43261,0.64867 0.66235,0.15285 1.27399,0.42856 1.94602,0.54056 0.71069,0.11845 3.38812,0.31272 3.89205,0.64868 0.40147,0.26765 0.61696,0.44238 1.08112,0.64867 0.17734,0.0788 0.40334,0.079 0.54056,0.21623 0.12042,0.12041 -0.28453,-0.0797 -1.08112,0 -0.47165,0.0472 -0.93697,0.14415 -1.40546,0.21622"
       id="path3907"
       transform="translate(0,527.95265)" />
    <path
       sodipodi:type="arc"
       style="fill:#000000;stroke:#000000"
       id="path2857-6"
       sodipodi:cx="106.12261"
       sodipodi:cy="69.290634"
       sodipodi:rx="3.9672003"
       sodipodi:ry="2.7187502"
       d="m 110.08981,69.290634 a 3.9672003,2.7187502 0 1 1 -7.9344,0 3.9672003,2.7187502 0 1 1 7.9344,0 z"
       transform="matrix(0.65401106,0,0,0.97070768,47.710879,624.77988)" />
    <path
       sodipodi:type="arc"
       style="fill:#000000;stroke:#000000"
       id="path2857-6-4"
       sodipodi:cx="106.12261"
       sodipodi:cy="69.290634"
       sodipodi:rx="3.9672003"
       sodipodi:ry="2.7187502"
       d="m 110.08981,69.290634 a 3.9672003,2.7187502 0 1 1 -7.9344,0 3.9672003,2.7187502 0 1 1 7.9344,0 z"
       transform="matrix(0.65401106,0,0,0.97070768,370.67049,543.99399)" />
    <path
       style="fill:none;stroke:#000000;stroke-width:1px;stroke-linecap:butt;stroke-linejoin:miter;stroke-opacity:1"
       d="M 113.53748,38.47832 233.29143,59.745167"
       id="path3953"
       transform="translate(0,527.95265)"
       inkscape:connector-type="polyline" />
    <path
       style="fill:none;stroke:#000000;stroke-width:1px;stroke-linecap:butt;stroke-linejoin:miter;stroke-opacity:1"
       d="m 121.24806,159.3679 c 1.01695,-1.02616 2.2454,-1.97762 3.56771,-2.5947 0.62626,-0.29225 0.71183,-0.11473 1.29735,-0.54056 1.35432,-0.98496 2.65185,-2.15329 4.10827,-3.02715 0.98316,-0.58989 2.10717,-0.9317 3.02714,-1.62168 1.40634,-1.05475 2.07169,-2.74301 3.4596,-3.78394 1.2909,-0.96817 2.94303,-1.4962 4.21639,-2.48658 1.39811,-1.08742 2.66601,-2.41068 4.10827,-3.4596 1.60978,-1.17075 3.37945,-2.1562 4.97317,-3.35148 2.57996,-1.93498 -0.77925,0.23119 2.16225,-1.7298 0.4577,-0.30514 0.96132,-0.54034 1.40546,-0.8649 0.49549,-0.36209 0.89212,-0.85292 1.40546,-1.18924 0.53923,-0.35329 1.17548,-0.53577 1.7298,-0.8649 2.61019,-1.5498 0.83302,-0.77428 3.24337,-2.27036 0.52052,-0.32308 1.12067,-0.51233 1.62168,-0.8649 1.45492,-1.02382 2.69627,-2.46948 4.10828,-3.56771 2.4678,-1.9194 5.33951,-3.26969 7.8922,-5.08128 1.72707,-1.22566 3.32556,-2.59624 5.08128,-3.78393 1.73245,-1.17195 3.52905,-2.23801 5.29751,-3.35149 1.42292,-0.89591 2.75294,-1.98773 4.21638,-2.81092 0.8922,-0.50186 1.78674,-1.05554 2.70281,-1.51357 1.34589,-0.67295 2.77206,-1.13464 4.10828,-1.83791 1.27277,-0.66988 2.41664,-1.59234 3.67582,-2.27036 1.93948,-1.04434 4.15605,-1.66869 6.1624,-2.5947 3.14132,-1.44984 5.98946,-3.54088 9.18956,-4.86506 0.52651,-0.217865 1.09264,-0.328943 1.62168,-0.540562 2.4564,-0.982557 4.83094,-2.157706 7.24354,-3.243372 3.18092,-1.431418 6.41497,-2.743578 9.622,-4.108271 2.93836,-1.250368 5.78976,-2.70511 8.7571,-3.892047 6.30601,-2.5224 12.8088,-4.556723 19.1359,-7.027306 5.43334,-2.12159 10.78802,-4.457973 16.21686,-6.594857 6.2382,-2.455461 12.61256,-4.645927 19.02778,-6.594856 5.29845,-1.609656 10.74115,-2.658258 16.10875,-4.000159 5.32254,-1.330635 10.57293,-2.784705 16.00064,-3.675822 10.64893,-1.748333 -3.4413,0.8714 6.70296,-0.973011 2.73024,-0.496407 5.50877,-0.905705 8.21655,-1.513574 0.8358,-0.187628 1.64353,-0.496925 2.48658,-0.648674 3.82974,-0.689353 7.71127,-0.760708 11.56803,-1.189237 1.41247,-0.156941 2.79297,-0.559711 4.21638,-0.648674 0.79022,-0.04939 1.27381,-0.0078 1.94603,0.216225 0.63911,0.213038 1.73207,-0.03802 2.37847,0 1.35476,0.07969 2.64022,0.547938 4.00016,0.648674 2.12647,0.157516 4.24905,0.08845 6.37863,0.216225 4.05004,0.243002 8.05442,0.904297 12.10859,0.973012 2.12621,0.03604 4.25242,0.14415 6.37863,0.108112 1.04742,-0.01775 2.08784,-0.198472 3.13526,-0.216225 2.91689,-0.04944 5.85027,0.250773 8.7571,0.43245 3.42595,0.214122 6.84157,0.408673 10.27068,0.540562 0.72905,0.02804 1.88353,0.03987 2.5947,0.324337 0.1951,0.07804 0.64867,0.14415 0.54056,0.324337 -0.10811,0.180188 -0.424,-0.499178 -0.54056,-0.324337 -0.50435,0.756527 1.35485,0.751726 1.40546,0.756787 0.71818,0.07182 1.1259,0.88401 1.83791,0.973011 0.35451,-0.08863 0.49515,-0.160933 0.8649,-0.108112 0.53943,0.07706 0.5285,0.633981 1.08113,0.756787 0.53443,0.118764 0.92021,0.06851 1.40546,0.432449 0.64537,0.48403 0.87053,1.082534 1.72979,1.297349 0.62563,0.156408 1.29152,0.06246 1.83792,0.540562 0.48293,0.422564 0.58921,0.983825 1.08112,1.405462 0.37093,0.317943 0.73654,0.04867 1.08112,0.324337 0.42231,0.337845 0.21726,0.743916 0.75679,1.081124 0.2611,0.163189 0.56884,0.239749 0.8649,0.324337 0.79898,0.228281 0,-0.33433 0,0.216225 0,0.11396 0.2883,-0.216225 0.32434,-0.108113 0.036,0.108113 -0.22952,0.171327 -0.32434,0.108113 -0.21829,-0.14553 0.0989,-0.522128 0.21622,-0.756787"
       id="path3955"
       transform="translate(0,527.95265)" />
    <text
       xml:space="preserve"
       style="font-size:32px;font-style:normal;font-variant:normal;font-weight:normal;font-stretch:normal;fill:#000000;fill-opacity:1;stroke:none;font-family:LMMathExtension10;-inkscape-font-specification:LMMathExtension10"
       x="195.95374"
       y="402.18835"
       id="text3957"
       transform="translate(0,527.95265)"><tspan
         sodipodi:role="line"
         id="tspan3959"
         x="195.95374"
         y="402.18835">e</tspan></text>
    <text
       xml:space="preserve"
       style="font-size:32px;font-style:normal;font-variant:normal;font-weight:normal;font-stretch:normal;fill:#000000;fill-opacity:1;stroke:none;font-family:LMMathExtension10;-inkscape-font-specification:LMMathExtension10"
       x="576.0769"
       y="258.93942"
       id="text3961"
       transform="translate(0,527.95265)"><tspan
         sodipodi:role="line"
         id="tspan3963"
         x="576.0769"
         y="258.93942">g</tspan></text>
    <text
       xml:space="preserve"
       style="font-size:32px;font-style:normal;font-variant:normal;font-weight:normal;font-stretch:normal;fill:#000000;fill-opacity:1;stroke:none;font-family:LMMathExtension10;-inkscape-font-specification:LMMathExtension10"
       x="131.95119"
       y="192.23407"
       id="text3965"
       transform="translate(0,527.95265)"><tspan
         sodipodi:role="line"
         id="tspan3967"
         x="131.95119"
         y="192.23407" /></text>
  </g>
</svg>
